<svg xmlns="http://www.w3.org/2000/svg" width="44" height="44"><path fill="none" d="M0 0h44v44H0z"/><path fill="currentColor" d="M36.143 25.2l-1.086-.515A14.914 14.914 0 0021 5.143 14.926 14.926 0 006.143 20a14.453 14.453 0 003.771 9.942 14.3 14.3 0 009.372 4.858v1.142A15.949 15.949 0 1137 20a15.986 15.986 0 01-.857 5.2zM11.286 10.342a13.159 13.159 0 00-4 9.658 13.374 13.374 0 003.429 9.143 13.2 13.2 0 008.571 4.514v-7.029h-2.114c-.267 0-.4-.151-.4-.457v-.8a.411.411 0 01.228-.4q.515-.171 1.029-.4a4.349 4.349 0 01.743-.172v-9.142h-.057q-.63.057-1.258.057h-.571a.366.366 0 01-.4-.343l-.114-.743a.449.449 0 01.343-.457 17.107 17.107 0 002.171-.686A11.521 11.521 0 0021.057 12a.508.508 0 01.229-.058h1.257a.354.354 0 01.4.4V18.8l11.086 5.371A12.771 12.771 0 0034.715 20a13.068 13.068 0 00-4.058-9.658c-2.666-2.7-4.814-4.057-9.657-4.057s-7.422 1.948-9.714 4.057zm10.8 29.429V21.485l16.343 7.943a.462.462 0 00.743-.228.521.521 0 00-.229-.8l-17.2-8.285a.428.428 0 00-.514 0 .516.516 0 00-.286.457v19.2a.572.572 0 001.143 0zm1.143-2.743a14.525 14.525 0 007.486-2.285 14.321 14.321 0 004.971-5.372l-1.029-.514a12.447 12.447 0 01-11.428 7.028z"/></svg>