<svg xmlns="http://www.w3.org/2000/svg" width="115" height="100"><defs><clipPath id="a"><path transform="translate(0 9.302)" fill="none" d="M0 0h115v100H0z"/></clipPath><style>.d{fill:#fff}</style></defs><g transform="translate(0 -9.302)" clip-path="url(#a)"><g opacity=".35"><circle cx="40.786" cy="40.786" r="40.786" transform="rotate(-45 69.626 28.84)"/><path d="M57.682 18.738a38.942 38.942 0 11-38.943 38.945 38.942 38.942 0 0138.943-38.945m0-3.689a42.631 42.631 0 1042.63 42.634 42.679 42.679 0 00-42.63-42.634z"/><g transform="translate(.87 .87)"><circle cx="40.171" cy="40.171" r="40.171" transform="rotate(-45 68.577 28.405)"/><path class="d" d="M56.811 17.869A38.941 38.941 0 1117.87 56.81a38.942 38.942 0 0138.941-38.941m0-2.459a41.4 41.4 0 1041.4 41.4 41.448 41.448 0 00-41.4-41.4z"/></g><path class="d" d="M1.122 69.186v-2.252l6.238-9.251-6.238-9.251V46.18h113.116v2.252L108 57.683l6.238 9.251v2.252z"/><path d="M113.623 46.793v1.449l-6.365 9.439 6.365 9.439v1.451H1.737v-1.449l6.365-9.439-6.365-9.439v-1.449h111.886m1.23-1.23H.507v3.054l.21.312 5.9 8.752-5.9 8.751-.21.312v3.055h114.346v-3.055l-.21-.312-5.9-8.751 5.9-8.752.21-.312v-3.054z"/><path class="d" d="M57.68 77.561A19.881 19.881 0 1177.56 57.68a19.9 19.9 0 01-19.88 19.881z"/><path d="M57.68 38.418A19.266 19.266 0 1138.417 57.68 19.266 19.266 0 0157.68 38.418m0-1.23a20.5 20.5 0 1020.5 20.5 20.518 20.518 0 00-20.5-20.5z"/></g></g></svg>