<svg xmlns="http://www.w3.org/2000/svg" width="114" height="100"><defs><clipPath id="a"><path fill="none" d="M0 0h114v100H0z"/></clipPath><style>.d{fill:#fff}</style></defs><g opacity=".35" clip-path="url(#a)"><path class="d" d="M10.742 83.544l2.457-8.866-7.379-5.579-.583-1.712 97.853-43.932.615 1.809-2.457 8.866 7.379 5.579.584 1.712-97.853 43.932z"/><path d="M103.307 23.502l.39 1.155-2.535 9.239 7.615 5.814.39 1.155-98.028 44.439-.39-1.155 2.535-9.239-7.615-5.815-.39-1.155 98.027-44.439m.615-1.415l-1.042.472-98.026 44.44-.853.387.3.887.39 1.155.1.3.251.192 7.06 5.391-2.351 8.566-.084.305.1.3.39 1.155.366 1.084 1.042-.472 98.027-44.439.853-.387-.3-.887-.39-1.155-.1-.3-.251-.192-7.061-5.391 2.351-8.566.083-.305-.1-.3-.39-1.155-.366-1.084z"/><path d="M25.805 68.527V16.6h62.33v51.927L56.968 83.819z"/><path d="M88.035 16.705v51.771L56.973 83.702 25.911 68.476V16.705h62.124m3.1-3.1h-68.33v56.811l1.738.852 31.062 15.227 1.367.67 1.367-.67 31.062-15.227 1.738-.852V13.6z"/><path d="M25.84 68.51V16.635h62.264V68.51L56.97 83.779z"/><path class="d" d="M88.034 16.705v51.774L56.97 83.702 25.91 68.479V16.705h62.124m2.07-2.07H23.84v55.13l1.159.568L56.061 85.56l.911.447.911-.447 31.062-15.227 1.159-.568v-55.13z"/><path class="d" d="M22.269 70.181l69.407-30.877V20.612L22.269 51.489z"/><path d="M21.269 71.731V51.339l71.407-32.276v20.392zm1.035-19.724v18.12l69.337-31.34v-18.12z"/></g></svg>