<svg xmlns="http://www.w3.org/2000/svg" width="90" height="100"><defs><clipPath id="a"><path transform="translate(35)" fill="none" d="M0 0h90v100H0z"/></clipPath></defs><g transform="translate(-35)" clip-path="url(#a)"><g opacity=".35"><path d="M80.55 91.086a40.923 40.923 0 01-34.1-18.377l-.687-1.033.687-1.033a38.2 38.2 0 000-42.185l-.687-1.033.687-1.033a40.819 40.819 0 0168.194 0l.687 1.033-.687 1.033a38.208 38.208 0 000 42.185l.687 1.033-.687 1.033A40.921 40.921 0 0180.55 91.086z"/><path d="M80.55 8.813a40.7 40.7 0 0133.821 18.025 40.75 40.75 0 000 45.424 40.743 40.743 0 01-67.642 0 40.751 40.751 0 000-45.424A40.7 40.7 0 0180.55 8.813m0-3.8a44.507 44.507 0 00-36.973 19.7l-1.427 2.121 1.427 2.121a36.951 36.951 0 010 41.182l-1.427 2.121 1.427 2.121a44.542 44.542 0 0073.947 0l1.427-2.121-1.427-2.121a36.951 36.951 0 010-41.182l1.427-2.121-1.427-2.121a44.507 44.507 0 00-36.973-19.7z"/><path d="M80.55 90.086a39.712 39.712 0 01-33.127-17.935l-.452-.682.452-.682a38.61 38.61 0 000-42.472l-.452-.683.452-.682a39.561 39.561 0 0166.254 0l.452.682-.452.683a38.61 38.61 0 000 42.472l.452.682-.452.682A39.712 39.712 0 0180.55 90.086z"/><path d="M80.55 9.504a39.646 39.646 0 0133.01 17.72 40.3 40.3 0 000 44.654 39.608 39.608 0 01-66.021 0 40.3 40.3 0 000-44.654 39.646 39.646 0 0133.01-17.72m0-2.49a42.123 42.123 0 00-35.056 18.819l-.929 1.39.929 1.39a37.8 37.8 0 010 41.874l-.929 1.39.929 1.39a42.07 42.07 0 0070.122 0l.929-1.39-.929-1.39a37.8 37.8 0 010-41.874l.929-1.39-.929-1.39A42.123 42.123 0 0080.554 7.014z" fill="#fff"/></g></g></svg>