<svg xmlns="http://www.w3.org/2000/svg" width="100" height="100"><defs><clipPath id="a"><path transform="translate(3)" fill="none" d="M0 0h100v100H0z"/></clipPath><style>.d{fill:#fff}</style></defs><g transform="translate(-3)" clip-path="url(#a)"><g opacity=".35"><path d="M4.646 57.884v-2.23l6.331-9.163-6.331-9.163v-2.23h96.083v2.23l-6.331 9.163 6.331 9.164v2.23z"/><path class="d" d="M100.468 35.355v1.482l-6.51 9.654 6.51 9.653v1.482H4.904v-1.482l6.51-9.653-6.51-9.654v-1.482h95.564m1.258-1.258H3.646v3.124l.215.319 6.036 8.951-6.036 8.95-.215.319v3.124h98.083v-3.129l-.215-.319-6.036-8.95 6.036-8.951.215-.319v-3.124z"/><path d="M32.963 72.228a26.571 26.571 0 01-3.7-3.292 26.474 26.474 0 01-7.116-18.1V18.905l30.535-6.411 30.536 6.411v31.931a26.477 26.477 0 01-7.116 18.1 26.571 26.571 0 01-3.7 3.292l-19.723 14.5z"/><path d="M52.685 13.286l29.763 6.234v31.482a25.539 25.539 0 01-6.87 17.425 25.525 25.525 0 01-3.567 3.169L52.684 85.769 33.358 71.596a25.524 25.524 0 01-3.567-3.169 25.539 25.539 0 01-6.869-17.426V19.519l29.762-6.234m0-3.855l-.773.162-29.762 6.234-3 .628v34.547a29.218 29.218 0 007.883 20 29.414 29.414 0 004.1 3.637l19.322 14.175 2.231 1.636 2.232-1.636L74.243 74.64a29.409 29.409 0 004.1-3.637 29.218 29.218 0 007.883-20V16.456l-3-.628-29.763-6.234-.773-.162z"/><path d="M33.096 72.018a26.235 26.235 0 01-3.653-3.251 26.138 26.138 0 01-7.035-17.876V19.112l30.278-6.352 30.278 6.352v31.779a26.138 26.138 0 01-7.035 17.876 26.2 26.2 0 01-3.654 3.251l-19.59 14.39z"/><path class="d" d="M52.686 13.286l29.763 6.234v31.482a25.539 25.539 0 01-6.869 17.426 25.524 25.524 0 01-3.567 3.169L52.686 85.769 33.36 71.596a25.524 25.524 0 01-3.567-3.169 25.539 25.539 0 01-6.869-17.426V19.519l29.762-6.234m0-2.57l-.516.108-29.762 6.232-2 .419v33.525a27.963 27.963 0 007.545 19.142 28.15 28.15 0 003.919 3.481l19.327 14.173 1.487 1.091 1.488-1.091L73.5 73.625a28.114 28.114 0 003.919-3.481 27.961 27.961 0 007.545-19.142V17.477l-2-.419-29.763-6.234-.516-.108z"/><path d="M16.794 28.82h71.783v22.787H16.794z"/><path class="d" d="M88.32 29.078V51.35H17.052V29.078H88.32m1.258-1.258H15.794v24.787h73.784V27.82z"/></g></g></svg>