<svg xmlns="http://www.w3.org/2000/svg" width="148" height="100"><defs><style>.b{fill:#fff}</style></defs><g opacity=".35"><path d="M5.681 50.142l67.855-28.146 67.855 28.146-67.856 28.145z"/><path d="M73.536 23.994l63.04 26.148-63.04 26.148-63.041-26.148 63.04-26.148m0-3.994l-1.414.586L9.082 46.734.866 50.142l8.216 3.408 63.04 26.148 1.414.586 1.413-.586 63.038-26.148 8.216-3.408-8.216-3.408-63.038-26.148L73.536 20z"/><path d="M7.285 50.142l66.25-27.48 66.25 27.48-66.25 27.48z"/><path class="b" d="M73.536 23.994l63.04 26.148-63.04 26.148-63.041-26.148 63.04-26.148m0-2.663l-.943.391L9.553 47.87l-5.477 2.272 5.477 2.272 63.04 26.148.943.391.942-.391 63.04-26.148 5.477-2.272-5.477-2.271-63.042-26.149-.942-.391z"/><path class="b" d="M43.117 36.614v27.059l30.419 12.618 30.419-12.618V36.614L73.536 23.993z"/><path d="M73.535 25.99l58.225 24.151-58.225 24.152-58.226-24.151L73.535 25.99m0-2l-63.04 26.152 63.04 26.148 63.04-26.148-63.04-26.148z"/></g><path fill="none" d="M0 0h148v100H0z"/></svg>