<svg xmlns="http://www.w3.org/2000/svg" width="110" height="100"><defs><clipPath id="a"><path fill="none" d="M0 0h110v100H0z"/></clipPath></defs><g opacity=".35" clip-path="url(#a)"><path d="M54.863 7l1.138 26.431 4.805-26.016-2.552 26.332 8.379-25.094-6.192 25.721 11.79-23.683L62.52 35.3l14.971-21.812L64.45 36.506l17.864-19.515L66.196 37.97l20.4-16.84-18.882 18.53 22.55-13.835-21.276 15.723 24.255-10.564-23.257 12.609 25.489-7.086-24.786 9.25 26.227-3.469-25.832 5.71 26.455.215-26.375 2.06 26.167 3.894-26.405-1.631 25.371 7.5-25.921-5.29 24.08 10.956-24.933-8.846 22.321 14.2-23.459-12.231 20.129 17.167-21.53-15.376 17.542 19.8-19.179-18.223 14.615 22.052-16.456-20.71 11.4 23.871-13.413-22.8 7.971 25.226-10.109-24.448 4.382 26.09-6.608-25.617.709 26.446-2.979-26.287-2.979 26.287.709-26.446-6.608 25.617 4.382-26.09-10.105 24.441 7.971-25.226-13.413 22.8 11.4-23.871L29.76 84.242 44.375 62.19 25.196 80.413l17.542-19.8-21.524 15.379L41.34 58.825l-23.459 12.23 22.321-14.2-24.933 8.846 24.08-10.956-25.921 5.29 25.371-7.5-26.405 1.631 26.167-3.894-26.375-2.06 26.455-.215-25.832-5.71 26.227 3.469-24.786-9.25 25.489 7.086-23.257-12.609 24.255 10.564-21.276-15.722L42.014 39.66 23.129 21.125l20.4 16.84-16.115-20.974 17.861 19.516-13.041-23.018 14.971 21.812-9.711-24.609 11.79 23.683-6.192-25.721 8.379 25.094-2.552-26.332 4.805 26.016z"/><path d="M40.786 79.996L2.864 62.759V36.813l37.922-17.237H68.94l37.922 17.237v25.946L68.94 79.996z"/><path d="M68.536 21.441l36.461 16.573v23.545L68.536 78.132H41.19L4.727 61.559V38.014l36.461-16.573h27.346m.808-3.729h-28.96l-.736.334L3.185 34.619l-2.186.993v28.347l2.186.994 36.461 16.573.736.334h28.961l.735-.334 36.461-16.573 2.186-.994V35.613l-2.186-.993-36.461-16.573-.735-.334z"/><path d="M40.92 79.375L3.485 62.359V37.214L40.92 20.198h27.884l37.435 17.016v25.145L68.804 79.375z"/><path d="M68.536 21.444l36.461 16.573v23.545L68.536 78.135H41.19L4.729 61.562V38.014l36.461-16.57h27.346m.539-2.486H40.651l-.49.223L3.7 35.751l-1.457.663v26.747l1.457.662 36.461 16.573.49.223H69.07l.49-.223 36.461-16.573 1.457-.662V36.413l-1.457-.663L69.56 19.177l-.49-.223z" fill="#fff"/></g></svg>