<svg width="293" height="45" fill="none" xmlns="http://www.w3.org/2000/svg"><path d="M11.476 0L0 24.602l24.602 11.476 11.476-24.602L11.476 0z" fill="#569DDC"/><path d="M19.19 5.225L0 24.415l19.19 19.19 19.19-19.19-19.19-19.19z" fill="#004685"/><path d="M26.512 20.937a2.326 2.326 0 10-3.29-3.29 2.326 2.326 0 003.29 3.29z" fill="#fff"/><path d="M216.188 35h-1.61V13.656h-7.422v-1.5h16.453v1.5h-7.421V35zm13.388 0V12.156h1.593V35h-1.593zm16.575 0h-1.609V13.656h-7.422v-1.5h16.453v1.5h-7.422V35zm13.388 0V12.156h1.594V33.5h10.891V35h-12.485zm31.482 0h-12.484V12.156h12.484v1.469h-10.89v8.64h10.281v1.47h-10.281v9.796h10.89V35zm-141.833-6.203c0 2.031-.735 3.625-2.204 4.781-1.468 1.156-3.494 1.734-6.078 1.734-2.583 0-4.698-.4-6.344-1.203v-3.53c1.042.489 2.146.874 3.313 1.155 1.177.282 2.271.422 3.281.422 1.479 0 2.568-.281 3.266-.843.708-.563 1.062-1.318 1.062-2.266 0-.854-.323-1.578-.968-2.172-.646-.594-1.98-1.297-4-2.11-2.084-.843-3.552-1.807-4.407-2.89-.854-1.083-1.281-2.385-1.281-3.906 0-1.907.677-3.407 2.031-4.5 1.355-1.094 3.172-1.64 5.453-1.64 2.188 0 4.365.478 6.532 1.437l-1.188 3.046c-2.031-.854-3.844-1.28-5.437-1.28-1.209 0-2.125.265-2.75.796-.625.521-.938 1.214-.938 2.078 0 .594.125 1.104.375 1.532.25.416.662.812 1.235 1.187.573.375 1.604.87 3.093 1.484 1.677.698 2.907 1.35 3.688 1.953.781.605 1.354 1.287 1.719 2.047.364.76.547 1.657.547 2.688zM156.169 35V12.156h3.735V35h-3.735zm20.232 0h-3.734V15.36h-6.719v-3.204h17.172v3.203h-6.719V35zm25.717 0h-12.922V12.156h12.922v3.156h-9.188v6.22h8.609v3.124h-8.609v7.172h9.188V35zm-139.134.437h-6.172V17.64h-5.578v-5.047h17.312v5.047h-5.562v17.797zm30.966 0h-6.203v-9.312h-7.172v9.312h-6.203V12.593h6.203v8.469h7.172v-8.469h6.203v22.844zm7.513 0V12.593h6.203v22.844h-6.203zm28.654-6.937c0 1.416-.359 2.677-1.078 3.78-.719 1.094-1.755 1.949-3.11 2.563-1.354.604-2.942.906-4.765.906-1.521 0-2.797-.104-3.828-.312-1.032-.219-2.104-.594-3.219-1.125v-5.5a18.725 18.725 0 003.672 1.422c1.271.333 2.437.5 3.5.5.917 0 1.588-.156 2.015-.469.428-.323.641-.734.641-1.234 0-.313-.088-.584-.266-.813-.166-.24-.442-.479-.828-.718-.375-.24-1.385-.73-3.031-1.47-1.489-.676-2.609-1.333-3.359-1.968-.74-.636-1.292-1.365-1.657-2.188-.354-.822-.531-1.796-.531-2.921 0-2.105.766-3.745 2.297-4.922 1.531-1.177 3.636-1.766 6.313-1.766 2.364 0 4.776.547 7.234 1.64l-1.891 4.766c-2.135-.979-3.979-1.468-5.531-1.468-.802 0-1.385.14-1.75.422-.364.28-.547.63-.547 1.046 0 .448.229.85.688 1.204.468.354 1.729 1 3.781 1.937 1.969.885 3.333 1.838 4.094 2.86.771 1.01 1.156 2.286 1.156 3.828z" fill="#004685"/></svg>