<svg xmlns="http://www.w3.org/2000/svg" width="44" height="44"><path fill="none" d="M0 0h44v44H0z"/><path fill="currentColor" d="M38.618 16.971a.547.547 0 01.171.629l-9.257 22.914a.487.487 0 01-.515.342.506.506 0 01-.228-.057l-12.171-4.457a.51.51 0 01-.343-.285.6.6 0 010-.515l1.085-2.171-11.028-5.257a.508.508 0 01-.286-.343.407.407 0 01.058-.457l3.428-6.057 9.6-16.972A.613.613 0 0119.704 4l12.171 1.257h.057a.162.162 0 00.114.057h.058v.057h.057v.057h.057l.057.057a.05.05 0 00.057.057v.115l.057.057v.228a.051.051 0 01-.057.058v.057l-1.543 3.257zm-26.629 5.885l-4.514 4.515.857.4 4.571-4.571zm-3.2 2l2.286-2.342-.8-.286zm.343 3.315l.857.4 4.743-4.743-.914-.343zm1.657.8l.857.4 4.857-4.914-.914-.286zm1.657.8l.857.4 5.029-5.028-.915-.344zm1.658.8l.856.4 5.2-5.2-.915-.343zm3.256-20.8l-1.656 2.914 7.142-7.2-1.085-.114zm-1.6 21.543l.857.4 5.314-5.315-.915-.342zm9.314-25.6L23.988 5.6l-7.714 7.714.971.286zm-7.658 26.4l.858.4 5.486-5.486-.915-.286zm8.172-4.4l-.914-.343-6 6-1.086 2.114.115.057zm1.714-21.772l-1.085-.114-8.057 8.057.971.229zm.057 22.4L26.445 28l-7.828 7.885.914.343zM20.674 5.257l-.743-.057-1.029 1.771zm8.857.914l-1.086-.114-8.342 8.342.971.286zm-.343 22.8l-.914-.343-7.886 7.886.914.342zm1.486-22.686l-8.686 8.629.971.286 7.144-7.143.856-1.715zm.285 23.315l-.914-.286-7.828 7.886.857.285zm-1.943-19.2l-5.085 5.086.971.229 2.972-2.972zm3.429 19.772l-.571-.229-7.886 7.886.914.343 7.258-7.315zm5.143-12.686L30.274 10.4l-2.915 6.057 1.657.458a.513.513 0 01.343.286.606.606 0 010 .514l-4.171 8.628 7.714 2.743zM26.674 38.8l3.828-3.828.857-2.057-5.6 5.6zm.114-23.714l-.971.915.457.114zm2.915 21.943l-2.115 2.115 1.086.4z"/></svg>