<svg xmlns="http://www.w3.org/2000/svg" width="44" height="44"><g stroke="currentColor" stroke-width="3" fill="none" transform="translate(4 4)"><circle cx="18" cy="18" r="18" stroke="none"/><circle cx="18" cy="18" r="16.5"/></g><path fill="currentColor" d="M19.771 24.374V23.6a2.892 2.892 0 01.362-1.5 3.8 3.8 0 011.285-1.19 4.827 4.827 0 001.055-.833 1.262 1.262 0 00.321-.851.684.684 0 00-.344-.6 1.629 1.629 0 00-.9-.222 7.048 7.048 0 00-3.2.969l-1.25-2.467a9.37 9.37 0 014.707-1.285 5.069 5.069 0 013.168.887 2.889 2.889 0 011.15 2.417 3.448 3.448 0 01-.511 1.9 5.211 5.211 0 01-1.634 1.516 6.32 6.32 0 00-1.19.9 1.014 1.014 0 00-.24.674v.462zm-.389 3.168a1.673 1.673 0 01.484-1.285 2.017 2.017 0 011.426-.453 1.948 1.948 0 011.389.457 1.676 1.676 0 01.484 1.281 1.63 1.63 0 01-.5 1.276 1.973 1.973 0 01-1.371.453 2.046 2.046 0 01-1.4-.448 1.619 1.619 0 01-.513-1.281z"/><path fill="none" d="M0 0h44v44H0z"/></svg>