<svg xmlns="http://www.w3.org/2000/svg" xmlns:xlink="http://www.w3.org/1999/xlink" width="90" height="100" viewBox="0 0 90 100"><defs><style>.a{fill:none;}.b{clip-path:url(#a);}.c{opacity:0.35;}.d{fill:#fff;}</style><clipPath id="a"><rect class="a" width="90" height="100" transform="translate(35)"/></clipPath></defs><g class="b" transform="translate(-35)"><g class="c" transform="translate(-264.707 -229.319)"><g transform="translate(306.857 234.333)"><path d="M345.257,320.405a40.923,40.923,0,0,1-34.1-18.377l-.687-1.033.687-1.033a38.2,38.2,0,0,0,0-42.185l-.687-1.033.687-1.033a40.819,40.819,0,0,1,68.194,0l.687,1.033-.687,1.033a38.208,38.208,0,0,0,0,42.185l.687,1.033-.687,1.033A40.921,40.921,0,0,1,345.257,320.405Z" transform="translate(-306.857 -234.333)"/><path d="M345.257,238.132a40.7,40.7,0,0,1,33.821,18.025,40.75,40.75,0,0,0,0,45.424,40.743,40.743,0,0,1-67.642,0,40.751,40.751,0,0,0,0-45.424,40.7,40.7,0,0,1,33.821-18.025m0-3.8a44.507,44.507,0,0,0-36.973,19.7l-1.427,2.121,1.427,2.121a36.951,36.951,0,0,1,0,41.182l-1.427,2.121,1.427,2.121a44.542,44.542,0,0,0,73.947,0l1.427-2.121-1.427-2.121a36.951,36.951,0,0,1,0-41.182l1.427-2.121-1.427-2.121a44.507,44.507,0,0,0-36.973-19.7Z" transform="translate(-306.857 -234.333)"/></g><g transform="translate(309.267 236.333)"><path d="M345.257,319.405A39.712,39.712,0,0,1,312.13,301.47l-.452-.682.452-.682a38.61,38.61,0,0,0,0-42.472l-.452-.683.452-.682a39.561,39.561,0,0,1,66.254,0l.452.682-.452.683a38.61,38.61,0,0,0,0,42.472l.452.682-.452.682A39.712,39.712,0,0,1,345.257,319.405Z" transform="translate(-309.267 -236.333)"/><path class="d" d="M345.257,238.823a39.646,39.646,0,0,1,33.01,17.72,40.3,40.3,0,0,0,0,44.654,39.608,39.608,0,0,1-66.021,0,40.3,40.3,0,0,0,0-44.654,39.646,39.646,0,0,1,33.01-17.72m0-2.49A42.123,42.123,0,0,0,310.2,255.152l-.929,1.39.929,1.39a37.8,37.8,0,0,1,0,41.874l-.929,1.39.929,1.39a42.07,42.07,0,0,0,70.122,0l.929-1.39-.929-1.39a37.8,37.8,0,0,1,0-41.874l.929-1.39-.929-1.39a42.123,42.123,0,0,0-35.061-18.819Z" transform="translate(-309.267 -236.333)"/></g></g></g></svg>