<svg width="298" height="45" viewBox="0 0 298 45" fill="none" xmlns="http://www.w3.org/2000/svg">
<path d="M12.0388 0.563042L0.563049 25.1648L25.1648 36.6406L36.6406 12.0388L12.0388 0.563042Z" fill="#569DDC"/>
<path d="M19.7532 5.788L0.563019 24.9782L19.7532 44.1684L38.9434 24.9782L19.7532 5.788Z" fill="#004685"/>
<path d="M27.0746 21.4999C27.983 20.5915 27.983 19.1188 27.0746 18.2104C26.1662 17.3021 24.6935 17.3021 23.7851 18.2104C22.8768 19.1188 22.8768 20.5915 23.7851 21.4999C24.6935 22.4083 26.1662 22.4083 27.0746 21.4999Z" fill="white"/>
<path d="M221.188 36H219.578V14.6562H212.156V13.1562H228.609V14.6562H221.188V36ZM234.576 36V13.1562H236.169V36H234.576ZM251.151 36H249.542V14.6562H242.12V13.1562H258.573V14.6562H251.151V36ZM264.539 36V13.1562H266.133V34.5H277.024V36H264.539ZM296.021 36H283.537V13.1562H296.021V14.625H285.131V23.2656H295.412V24.7344H285.131V34.5312H296.021V36Z" fill="#004685"/>
<path d="M154.188 29.7969C154.188 31.8281 153.453 33.4219 151.984 34.5781C150.516 35.7344 148.49 36.3125 145.906 36.3125C143.323 36.3125 141.208 35.9115 139.562 35.1094V31.5781C140.604 32.0677 141.708 32.4531 142.875 32.7344C144.052 33.0156 145.146 33.1562 146.156 33.1562C147.635 33.1562 148.724 32.875 149.422 32.3125C150.13 31.75 150.484 30.9948 150.484 30.0469C150.484 29.1927 150.161 28.4688 149.516 27.875C148.87 27.2812 147.536 26.5781 145.516 25.7656C143.432 24.9219 141.964 23.9583 141.109 22.875C140.255 21.7917 139.828 20.4896 139.828 18.9688C139.828 17.0625 140.505 15.5625 141.859 14.4688C143.214 13.375 145.031 12.8281 147.312 12.8281C149.5 12.8281 151.677 13.3073 153.844 14.2656L152.656 17.3125C150.625 16.4583 148.812 16.0312 147.219 16.0312C146.01 16.0312 145.094 16.2969 144.469 16.8281C143.844 17.349 143.531 18.0417 143.531 18.9062C143.531 19.5 143.656 20.0104 143.906 20.4375C144.156 20.8542 144.568 21.25 145.141 21.625C145.714 22 146.745 22.4948 148.234 23.1094C149.911 23.8073 151.141 24.4583 151.922 25.0625C152.703 25.6667 153.276 26.349 153.641 27.1094C154.005 27.8698 154.188 28.7656 154.188 29.7969ZM161.169 36V13.1562H164.904V36H161.169ZM181.401 36H177.667V16.3594H170.948V13.1562H188.12V16.3594H181.401V36ZM207.118 36H194.196V13.1562H207.118V16.3125H197.93V22.5312H206.539V25.6562H197.93V32.8281H207.118V36Z" fill="#004685"/>
<path d="M65.5469 36H59.375V18.2031H53.7969V13.1562H71.1094V18.2031H65.5469V36ZM96.5131 36H90.31V26.6875H83.1381V36H76.935V13.1562H83.1381V21.625H90.31V13.1562H96.5131V36ZM104.026 36V13.1562H110.229V36H104.026ZM132.68 29.0625C132.68 30.4792 132.321 31.7396 131.602 32.8438C130.883 33.9375 129.847 34.7917 128.493 35.4062C127.138 36.0104 125.55 36.3125 123.727 36.3125C122.206 36.3125 120.93 36.2083 119.899 36C118.868 35.7812 117.795 35.4062 116.68 34.875V29.375C117.857 29.9792 119.081 30.4531 120.352 30.7969C121.623 31.1302 122.789 31.2969 123.852 31.2969C124.769 31.2969 125.44 31.1406 125.868 30.8281C126.295 30.5052 126.508 30.0938 126.508 29.5938C126.508 29.2812 126.42 29.0104 126.243 28.7812C126.076 28.5417 125.8 28.3021 125.414 28.0625C125.039 27.8229 124.029 27.3333 122.383 26.5938C120.894 25.9167 119.774 25.2604 119.024 24.625C118.284 23.9896 117.732 23.2604 117.368 22.4375C117.013 21.6146 116.836 20.6406 116.836 19.5156C116.836 17.4115 117.602 15.7708 119.133 14.5938C120.664 13.4167 122.769 12.8281 125.446 12.8281C127.81 12.8281 130.222 13.375 132.68 14.4688L130.789 19.2344C128.654 18.2552 126.81 17.7656 125.258 17.7656C124.456 17.7656 123.873 17.9062 123.508 18.1875C123.144 18.4688 122.961 18.8177 122.961 19.2344C122.961 19.6823 123.19 20.0833 123.649 20.4375C124.118 20.7917 125.378 21.4375 127.43 22.375C129.399 23.2604 130.763 24.2135 131.524 25.2344C132.295 26.2448 132.68 27.5208 132.68 29.0625Z" fill="#004685"/>
</svg>
