<svg xmlns="http://www.w3.org/2000/svg" xmlns:xlink="http://www.w3.org/1999/xlink" width="100" height="100" viewBox="0 0 100 100"><defs><style>.a{fill:none;}.b{clip-path:url(#a);}.c{opacity:0.35;}.d{fill:#fff;}</style><clipPath id="a"><rect class="a" width="100" height="100" transform="translate(3)"/></clipPath></defs><g class="b" transform="translate(-3)"><g class="c" transform="translate(89.629 191.313)"><g transform="translate(-85.983 -157.216)"><path d="M-84.983-118.871v-2.23l6.331-9.163-6.331-9.163v-2.23H11.1v2.23l-6.331,9.163L11.1-121.1v2.23Z" transform="translate(85.983 142.658)"/><path class="d" d="M10.839-141.4v1.482l-6.51,9.654,6.51,9.653v1.482H-84.725v-1.482l6.51-9.653-6.51-9.654V-141.4H10.839m1.258-1.258h-98.08v3.124l.215.319,6.036,8.951-6.036,8.95-.215.319v3.124H12.1V-121l-.215-.319-6.036-8.95,6.036-8.951.215-.319v-3.124Z" transform="translate(85.983 142.658)"/></g><g transform="translate(-70.479 -181.882)"><path d="M-47.515-119.085a26.571,26.571,0,0,1-3.7-3.292,26.474,26.474,0,0,1-7.116-18.1v-31.931l30.535-6.411,30.536,6.411v31.931a26.477,26.477,0,0,1-7.116,18.1,26.571,26.571,0,0,1-3.7,3.292l-19.723,14.5Z" transform="translate(61.328 181.882)"/><path d="M-27.793-178.027l29.763,6.234v31.482A25.539,25.539,0,0,1-4.9-122.886a25.525,25.525,0,0,1-3.567,3.169l-19.327,14.173-19.326-14.173a25.524,25.524,0,0,1-3.567-3.169h0a25.539,25.539,0,0,1-6.869-17.426v-31.482l29.762-6.234m0-3.855-.773.162-29.762,6.234-3,.628v34.547a29.218,29.218,0,0,0,7.883,20,29.414,29.414,0,0,0,4.1,3.637L-30.024-102.5l2.231,1.636,2.232-1.636,19.326-14.173a29.409,29.409,0,0,0,4.1-3.637,29.218,29.218,0,0,0,7.883-20v-34.547l-3-.628-29.763-6.234-.773-.162Z" transform="translate(61.328 181.882)"/></g><g transform="translate(-69.221 -180.597)"><path d="M-46.64-118.537a26.235,26.235,0,0,1-3.653-3.251,26.138,26.138,0,0,1-7.035-17.876v-31.779l30.278-6.352,30.278,6.352v31.779a26.138,26.138,0,0,1-7.035,17.876,26.2,26.2,0,0,1-3.654,3.251l-19.59,14.39Z" transform="translate(59.328 179.839)"/><path class="d" d="M-27.05-177.269l29.763,6.234v31.482a25.539,25.539,0,0,1-6.869,17.426,25.524,25.524,0,0,1-3.567,3.169L-27.05-104.786l-19.326-14.173a25.524,25.524,0,0,1-3.567-3.169h0a25.539,25.539,0,0,1-6.869-17.426v-31.482l29.762-6.234m0-2.57-.516.108L-57.328-173.5l-2,.419v33.525a27.963,27.963,0,0,0,7.545,19.142,28.15,28.15,0,0,0,3.919,3.481l19.327,14.173,1.487,1.091,1.488-1.091L-6.236-116.93a28.114,28.114,0,0,0,3.919-3.481,27.961,27.961,0,0,0,7.545-19.142v-33.525l-2-.419-29.763-6.234-.516-.108Z" transform="translate(59.328 179.839)"/></g><g transform="translate(-73.835 -163.493)"><rect width="71.783" height="22.787" transform="translate(1 1)"/><path class="d" d="M5.861-151.381v22.272H-65.407v-22.272H5.861m1.258-1.258H-66.665v24.787H7.119v-24.787Z" transform="translate(66.665 152.639)"/></g></g></g></svg>