<svg xmlns="http://www.w3.org/2000/svg" width="148" height="100" viewBox="0 0 148 100"><defs><style>.a{opacity:0.35;}.b{fill:#fff;}.c{fill:none;}</style></defs><g class="a" transform="translate(0.866 20)"><path d="M93.31,70.177l67.855-28.146,67.855,28.146L161.164,98.322Z" transform="translate(-88.495 -40.035)"/><path d="M158.149,42.778l63.04,26.148-63.04,26.148L95.108,68.926l63.04-26.148m0-3.994-1.414.586L93.695,65.518l-8.216,3.408,8.216,3.408,63.04,26.148,1.414.586,1.413-.586L222.6,72.334l8.216-3.408L222.6,65.518,159.562,39.37l-1.413-.586Z" transform="translate(-85.479 -38.784)"/><g transform="translate(3.21 1.331)"><path d="M95.919,70.594l66.25-27.48,66.25,27.48-66.25,27.48Z" transform="translate(-92.71 -41.783)"/><path class="b" d="M160.16,43.612,223.2,69.76,160.16,95.908,97.119,69.76l63.04-26.148m0-2.663-.943.391L96.177,67.488,90.7,69.76l5.477,2.272,63.04,26.148.943.391.942-.391,63.04-26.148,5.477-2.272-5.477-2.271L161.1,41.34l-.942-.391Z" transform="translate(-90.7 -40.949)"/></g><path class="b" d="M154.194,57.9V84.959l30.419,12.618,30.419-12.618V57.9L184.613,45.279Z" transform="translate(-111.943 -41.286)"/><path d="M164.18,47.276l58.225,24.151L164.18,95.579,105.954,71.428,164.18,47.276m0-2L101.14,71.428l63.04,26.148,63.04-26.148L164.18,45.28Z" transform="translate(-91.511 -41.286)"/></g><rect class="c" width="148" height="100"/></svg>