<svg width="293" height="45" viewBox="0 0 293 45" fill="none" xmlns="http://www.w3.org/2000/svg">
<path d="M11.4758 0L3.05176e-05 24.6018L24.6018 36.0776L36.0776 11.4758L11.4758 0Z" fill="#569DDC"/>
<path d="M19.1902 5.22496L0 24.4152L19.1902 43.6054L38.3804 24.4152L19.1902 5.22496Z" fill="#004685"/>
<path d="M26.5116 20.9369C27.42 20.0285 27.42 18.5558 26.5116 17.6474C25.6032 16.7391 24.1305 16.7391 23.2221 17.6474C22.3138 18.5558 22.3138 20.0285 23.2221 20.9369C24.1305 21.8453 25.6032 21.8453 26.5116 20.9369Z" fill="white"/>
<path d="M216.188 35H214.578V13.6562H207.156V12.1562H223.609V13.6562H216.188V35ZM229.576 35V12.1562H231.169V35H229.576ZM246.151 35H244.542V13.6562H237.12V12.1562H253.573V13.6562H246.151V35ZM259.539 35V12.1562H261.133V33.5H272.024V35H259.539ZM291.021 35H278.537V12.1562H291.021V13.625H280.131V22.2656H290.412V23.7344H280.131V33.5312H291.021V35Z" fill="#004685"/>
<path d="M149.188 28.7969C149.188 30.8281 148.453 32.4219 146.984 33.5781C145.516 34.7344 143.49 35.3125 140.906 35.3125C138.323 35.3125 136.208 34.9115 134.562 34.1094V30.5781C135.604 31.0677 136.708 31.4531 137.875 31.7344C139.052 32.0156 140.146 32.1562 141.156 32.1562C142.635 32.1562 143.724 31.875 144.422 31.3125C145.13 30.75 145.484 29.9948 145.484 29.0469C145.484 28.1927 145.161 27.4688 144.516 26.875C143.87 26.2812 142.536 25.5781 140.516 24.7656C138.432 23.9219 136.964 22.9583 136.109 21.875C135.255 20.7917 134.828 19.4896 134.828 17.9688C134.828 16.0625 135.505 14.5625 136.859 13.4688C138.214 12.375 140.031 11.8281 142.312 11.8281C144.5 11.8281 146.677 12.3073 148.844 13.2656L147.656 16.3125C145.625 15.4583 143.812 15.0312 142.219 15.0312C141.01 15.0312 140.094 15.2969 139.469 15.8281C138.844 16.349 138.531 17.0417 138.531 17.9062C138.531 18.5 138.656 19.0104 138.906 19.4375C139.156 19.8542 139.568 20.25 140.141 20.625C140.714 21 141.745 21.4948 143.234 22.1094C144.911 22.8073 146.141 23.4583 146.922 24.0625C147.703 24.6667 148.276 25.349 148.641 26.1094C149.005 26.8698 149.188 27.7656 149.188 28.7969ZM156.169 35V12.1562H159.904V35H156.169ZM176.401 35H172.667V15.3594H165.948V12.1562H183.12V15.3594H176.401V35ZM202.118 35H189.196V12.1562H202.118V15.3125H192.93V21.5312H201.539V24.6562H192.93V31.8281H202.118V35Z" fill="#004685"/>
<path d="M62.9839 35.437H56.812V17.6401H51.2339V12.5932H68.5464V17.6401H62.9839V35.437ZM93.9501 35.437H87.747V26.1245H80.5751V35.437H74.372V12.5932H80.5751V21.062H87.747V12.5932H93.9501V35.437ZM101.463 35.437V12.5932H107.666V35.437H101.463ZM130.117 28.4995C130.117 29.9161 129.758 31.1765 129.039 32.2807C128.32 33.3745 127.284 34.2286 125.929 34.8432C124.575 35.4474 122.987 35.7495 121.164 35.7495C119.643 35.7495 118.367 35.6453 117.336 35.437C116.304 35.2182 115.232 34.8432 114.117 34.312V28.812C115.294 29.4161 116.518 29.8901 117.789 30.2338C119.06 30.5672 120.226 30.7338 121.289 30.7338C122.206 30.7338 122.877 30.5776 123.304 30.2651C123.732 29.9422 123.945 29.5307 123.945 29.0307C123.945 28.7182 123.857 28.4474 123.679 28.2182C123.513 27.9786 123.237 27.739 122.851 27.4995C122.476 27.2599 121.466 26.7703 119.82 26.0307C118.331 25.3536 117.211 24.6974 116.461 24.062C115.721 23.4265 115.169 22.6974 114.804 21.8745C114.45 21.0515 114.273 20.0776 114.273 18.9526C114.273 16.8484 115.039 15.2078 116.57 14.0307C118.101 12.8536 120.206 12.2651 122.883 12.2651C125.247 12.2651 127.659 12.812 130.117 13.9057L128.226 18.6713C126.091 17.6922 124.247 17.2026 122.695 17.2026C121.893 17.2026 121.31 17.3432 120.945 17.6245C120.581 17.9057 120.398 18.2547 120.398 18.6713C120.398 19.1192 120.627 19.5203 121.086 19.8745C121.554 20.2286 122.815 20.8745 124.867 21.812C126.836 22.6974 128.2 23.6505 128.961 24.6713C129.732 25.6817 130.117 26.9578 130.117 28.4995Z" fill="#004685"/>
</svg>
